<?xml version="1.0" encoding="utf-8"?>
<!-- Generator: Adobe Illustrator 28.2.0, SVG Export Plug-In . SVG Version: 6.00 Build 0)  -->
<svg version="1.1" xmlns="http://www.w3.org/2000/svg" xmlns:xlink="http://www.w3.org/1999/xlink" x="0px" y="0px"
	 viewBox="0 0 1024 1024" style="enable-background:new 0 0 1024 1024;" xml:space="preserve">
<style type="text/css">
	.st0{fill:#FF2790;}
	.st1{fill:#FFFFFF;}
</style>
<g id="Layer_2">
	<path d="M565.4,40c8.1,202.1,344.3,346.6,344.3,346.6s-214.9,557.9-422.1,630.5C303,1081.9,124.8,666.7,104.8,600.5
		C62.2,459.8,557.3-162.1,565.4,40z"/>
</g>
<g id="Layer_1">
	<g>
		<path class="st0" d="M220.2,721.2c0,0,60.4-314.6,120.5-433.9c39.3-77.9,229.3-106.3,289.2-42.8
			C591.2,311.3,220.2,721.2,220.2,721.2z"/>
	</g>
	<g>
		<path class="st0" d="M468.7,993.4c-17.6-19.1-23.4-46.1-25.6-71.9c-6.5-74.1,10.5-149,41-216.9c30.5-67.9,74.1-129.1,122.1-185.9
			c49.1-58.1,104.3-113,171.8-148.2C598.3,554.8,450.7,748.9,468.7,993.4z"/>
	</g>
	<path class="st1" d="M574.4,310.2c106.3,44.4-67.2,131.2-126.8,269.9S270.7,935.8,282.5,687.4C294.3,439,468.1,265.8,574.4,310.2z"
		/>
</g>
</svg>
